<svg width="47" height="47" fill="none" xmlns="http://www.w3.org/2000/svg"><circle cx="23.5" cy="23.5" r="23.5" fill="#FFB23E"/><path d="M27.34 14h-7.68A5.667 5.667 0 0 0 14 19.66v7.68c0 3.12 2.54 5.66 5.66 5.66h7.68c3.12 0 5.66-2.54 5.66-5.66v-7.68c0-3.12-2.54-5.66-5.66-5.66Zm3.749 13.34a3.749 3.749 0 0 1-3.75 3.749H19.66a3.749 3.749 0 0 1-3.749-3.75V19.66a3.749 3.749 0 0 1 3.75-3.749h7.679a3.749 3.749 0 0 1 3.749 3.75v7.679Z" fill="#fff"/><path d="M23.5 18.586a4.92 4.92 0 0 0-4.914 4.914 4.92 4.92 0 0 0 4.914 4.914 4.92 4.92 0 0 0 4.914-4.914 4.92 4.92 0 0 0-4.914-4.914Zm0 7.917a3.003 3.003 0 1 1 0-6.006 3.003 3.003 0 0 1 0 6.006Zm4.924-6.703a1.178 1.178 0 1 0 0-2.355 1.178 1.178 0 0 0 0 2.355Z" fill="#fff"/></svg>