<svg width="47" height="47" fill="none" xmlns="http://www.w3.org/2000/svg"><circle cx="23.5" cy="23.5" r="23.5" fill="#FFB23E"/><g clip-path="url(#a)"><path d="M30.802 27.298s1.617 1.597 2.017 2.336c.008.01.014.023.018.035.163.273.203.487.123.645-.135.261-.592.392-.747.403h-2.858c-.199 0-.613-.052-1.117-.4-.385-.269-.768-.712-1.139-1.145-.554-.643-1.033-1.2-1.518-1.2a.548.548 0 0 0-.18.03c-.367.115-.833.638-.833 2.031 0 .436-.344.684-.585.684h-1.309c-.446 0-2.768-.156-4.827-2.327-2.523-2.658-4.789-7.99-4.811-8.037-.141-.345.155-.533.475-.533h2.886c.387 0 .513.234.601.444.102.241.48 1.205 1.1 2.288 1.004 1.762 1.621 2.48 2.114 2.48a.527.527 0 0 0 .264-.07c.644-.355.524-2.655.494-3.129 0-.092-.001-1.027-.331-1.479-.236-.324-.638-.45-.881-.496.065-.094.203-.238.38-.323.441-.22 1.238-.252 2.029-.252h.439c.858.012 1.08.067 1.392.146.628.15.64.557.585 1.943-.016.396-.033.842-.033 1.367 0 .112-.005.237-.005.364-.019.711-.044 1.512.458 1.841a.41.41 0 0 0 .217.062c.174 0 .695 0 2.108-2.425.62-1.07 1.1-2.334 1.133-2.429.028-.053.112-.202.214-.262a.479.479 0 0 1 .236-.056h3.395c.37 0 .621.056.67.196.082.227-.016.92-1.566 3.016-.261.35-.49.651-.691.915-1.405 1.844-1.405 1.937.083 3.337Z" fill="#fff"/></g><defs><clipPath id="a"><path fill="#fff" transform="translate(13 15)" d="M0 0h20v20H0z"/></clipPath></defs></svg>