<svg width="19" height="19" fill="none" xmlns="http://www.w3.org/2000/svg"><path d="M18.796 14.41c-.707-1.337-3.163-2.787-3.271-2.85a1.95 1.95 0 0 0-.953-.275c-.459 0-.834.21-1.06.592-.36.43-.806.932-.914 1.01-.837.567-1.492.503-2.217-.222L6.335 8.62c-.72-.72-.786-1.384-.222-2.216.079-.109.581-.555 1.01-.914.275-.163.463-.406.545-.703.11-.396.03-.86-.23-1.314-.06-.104-1.51-2.56-2.847-3.268a1.742 1.742 0 0 0-2.042.307l-.894.894C.242 2.818-.27 4.421.133 6.167.47 7.623 1.451 9.171 3.051 10.77l5.18 5.18c2.023 2.024 3.953 3.05 5.734 3.05 1.31 0 2.532-.557 3.63-1.655l.894-.893a1.729 1.729 0 0 0 .307-2.042Z" fill="#D7B1E0"/></svg>