<svg width="46" height="46" viewBox="0 0 46 46" fill="none" xmlns="http://www.w3.org/2000/svg">
<path fill-rule="evenodd" clip-rule="evenodd" d="M31.3068 3.83325C37.8024 3.83325 42.1667 8.39109 42.1667 15.1723V30.8276C42.1667 37.6088 37.8024 42.1666 31.3049 42.1666H14.6912C8.19567 42.1666 3.83333 37.6088 3.83333 30.8276V15.1723C3.83333 8.39109 8.19567 3.83325 14.6912 3.83325H31.3068ZM31.3068 6.70825H14.6912C9.84208 6.70825 6.70833 10.0298 6.70833 15.1723V30.8276C6.70833 35.97 9.84208 39.2916 14.6912 39.2916H31.3049C36.156 39.2916 39.2917 35.97 39.2917 30.8276V15.1723C39.2917 10.0298 36.156 6.70825 31.3068 6.70825ZM30.8382 17.4358C31.3998 17.9974 31.3998 18.9059 30.8382 19.4675L21.7417 28.564C21.4619 28.8458 21.0939 28.9857 20.7259 28.9857C20.3598 28.9857 19.9899 28.8458 19.71 28.564L15.1599 24.0158C14.5983 23.4542 14.5983 22.5457 15.1599 21.9841C15.7215 21.4225 16.63 21.4225 17.1915 21.9841L20.7259 25.5146L28.8065 17.4358C29.3681 16.8743 30.2766 16.8743 30.8382 17.4358Z" fill="#F7A223"/>
</svg>
