<svg width="19" height="19" viewBox="0 0 19 19" fill="none" xmlns="http://www.w3.org/2000/svg">
<path d="M18.7963 14.41C18.089 13.0729 15.6329 11.6232 15.5248 11.5598C15.2092 11.3801 14.8799 11.285 14.5717 11.285C14.1134 11.285 13.7383 11.4949 13.5111 11.8768C13.1518 12.3065 12.7062 12.8088 12.5981 12.8866C11.7612 13.4544 11.1061 13.3899 10.3812 12.6651L6.33546 8.61899C5.61515 7.89868 5.54893 7.23543 6.11285 6.40311C6.19175 6.29427 6.69403 5.84834 7.12375 5.48872C7.39779 5.32564 7.58588 5.0833 7.6683 4.78602C7.77784 4.39046 7.69718 3.92517 7.43864 3.47185C7.37771 3.36759 5.92722 0.911134 4.59086 0.204208C4.34148 0.072122 4.0604 0.00238037 3.77862 0.00238037C3.31438 0.00238037 2.87762 0.183427 2.54934 0.511353L1.65538 1.40496C0.241525 2.81846 -0.270266 4.42076 0.13339 6.16711C0.470122 7.62253 1.45144 9.17128 3.05056 10.7701L8.23011 15.9496C10.254 17.9735 12.1835 18.9999 13.9651 18.9999C13.9651 18.9999 13.9651 18.9999 13.9655 18.9999C15.2758 18.9999 16.4973 18.443 17.5952 17.3451L18.4888 16.4515C19.0319 15.9087 19.1552 15.088 18.7963 14.41Z" fill="#D7B1E0"/>
</svg>
