<svg width="46" height="46" fill="none" xmlns="http://www.w3.org/2000/svg"><path fill-rule="evenodd" clip-rule="evenodd" d="M31.307 3.833c6.495 0 10.86 4.558 10.86 11.34v15.655c0 6.78-4.365 11.339-10.862 11.339H14.69c-6.495 0-10.858-4.558-10.858-11.34V15.173c0-6.78 4.363-11.339 10.858-11.339h16.616Zm0 2.875H14.69c-4.849 0-7.983 3.322-7.983 8.464v15.656c0 5.142 3.134 8.464 7.983 8.464h16.614c4.851 0 7.987-3.322 7.987-8.464V15.172c0-5.142-3.136-8.464-7.985-8.464Zm-.469 10.728c.562.561.562 1.47 0 2.032l-9.096 9.096c-.28.282-.648.422-1.016.422a1.43 1.43 0 0 1-1.016-.422l-4.55-4.548a1.436 1.436 0 1 1 2.032-2.032l3.534 3.53 8.08-8.078a1.436 1.436 0 0 1 2.032 0Z" fill="#F7A223"/></svg>