<svg width="47" height="47" viewBox="0 0 47 47" fill="none" xmlns="http://www.w3.org/2000/svg">
<circle cx="23.5" cy="23.5" r="23.5" fill="#FFB23E"/>
<path d="M27.3398 14H19.6602C16.5392 14 14 16.5392 14 19.6602V27.3398C14 30.4608 16.5392 33 19.6602 33H27.3398C30.4608 33 33 30.4608 33 27.3398V19.6602C33 16.5392 30.4608 14 27.3398 14ZM31.0886 27.3398C31.0886 29.4102 29.4102 31.0886 27.3398 31.0886H19.6602C17.5898 31.0886 15.9114 29.4102 15.9114 27.3398V19.6602C15.9114 17.5898 17.5898 15.9114 19.6602 15.9114H27.3398C29.4102 15.9114 31.0886 17.5898 31.0886 19.6602V27.3398Z" fill="white"/>
<path d="M23.5 18.5859C20.7904 18.5859 18.5859 20.7904 18.5859 23.5C18.5859 26.2096 20.7904 28.4141 23.5 28.4141C26.2096 28.4141 28.4141 26.2096 28.4141 23.5C28.4141 20.7904 26.2096 18.5859 23.5 18.5859ZM23.5 26.5027C21.8417 26.5027 20.4973 25.1584 20.4973 23.5C20.4973 21.8417 21.8417 20.4973 23.5 20.4973C25.1584 20.4973 26.5027 21.8417 26.5027 23.5C26.5027 25.1583 25.1583 26.5027 23.5 26.5027Z" fill="white"/>
<path d="M28.4236 19.8003C29.0739 19.8003 29.6011 19.2731 29.6011 18.6228C29.6011 17.9725 29.0739 17.4453 28.4236 17.4453C27.7733 17.4453 27.2461 17.9725 27.2461 18.6228C27.2461 19.2731 27.7733 19.8003 28.4236 19.8003Z" fill="white"/>
</svg>
