<svg width="47" height="47" viewBox="0 0 47 47" fill="none" xmlns="http://www.w3.org/2000/svg">
<circle cx="23.5" cy="23.5" r="23.5" fill="#FFB23E"/>
<g clip-path="url(#clip0_38_260)">
<path d="M30.802 27.2982C30.802 27.2982 32.419 28.8952 32.819 29.6342C32.8267 29.6449 32.8328 29.6567 32.837 29.6692C33 29.9422 33.04 30.1562 32.96 30.3142C32.825 30.5752 32.368 30.7062 32.213 30.7172H29.355C29.156 30.7172 28.742 30.6652 28.238 30.3172C27.853 30.0482 27.47 29.6052 27.099 29.1722C26.545 28.5292 26.066 27.9712 25.581 27.9712C25.5197 27.9711 25.4589 27.9812 25.401 28.0012C25.034 28.1172 24.568 28.6402 24.568 30.0332C24.568 30.4692 24.224 30.7172 23.983 30.7172H22.674C22.228 30.7172 19.906 30.5612 17.847 28.3902C15.324 25.7322 13.058 20.4002 13.036 20.3532C12.895 20.0082 13.191 19.8202 13.511 19.8202H16.397C16.784 19.8202 16.91 20.0542 16.998 20.2642C17.1 20.5052 17.478 21.4692 18.098 22.5522C19.102 24.3142 19.719 25.0312 20.212 25.0312C20.3046 25.0315 20.3956 25.0073 20.476 24.9612C21.12 24.6072 21 22.3072 20.97 21.8332C20.97 21.7412 20.969 20.8062 20.639 20.3542C20.403 20.0302 20.001 19.9042 19.758 19.8582C19.823 19.7642 19.961 19.6202 20.138 19.5352C20.579 19.3152 21.376 19.2832 22.167 19.2832H22.606C23.464 19.2952 23.686 19.3502 23.998 19.4292C24.626 19.5792 24.638 19.9862 24.583 21.3722C24.567 21.7682 24.55 22.2142 24.55 22.7392C24.55 22.8512 24.545 22.9762 24.545 23.1032C24.526 23.8142 24.501 24.6152 25.003 24.9442C25.0681 24.9848 25.1433 25.0062 25.22 25.0062C25.394 25.0062 25.915 25.0062 27.328 22.5812C27.948 21.5102 28.428 20.2472 28.461 20.1522C28.489 20.0992 28.573 19.9502 28.675 19.8902C28.7475 19.8516 28.8288 19.8323 28.911 19.8342H32.306C32.676 19.8342 32.927 19.8902 32.976 20.0302C33.058 20.2572 32.96 20.9502 31.41 23.0462C31.149 23.3952 30.92 23.6972 30.719 23.9612C29.314 25.8052 29.314 25.8982 30.802 27.2982Z" fill="white"/>
</g>
<defs>
<clipPath id="clip0_38_260">
<rect width="20" height="20" fill="white" transform="translate(13 15)"/>
</clipPath>
</defs>
</svg>
