<svg width="46" height="46" viewBox="0 0 46 46" fill="none" xmlns="http://www.w3.org/2000/svg">
<path fill-rule="evenodd" clip-rule="evenodd" d="M31.3068 3.83334C37.8024 3.83334 42.1667 8.39118 42.1667 15.1723V30.8277C42.1667 37.6088 37.8024 42.1667 31.3049 42.1667H14.6913C8.19567 42.1667 3.83334 37.6088 3.83334 30.8277V15.1723C3.83334 8.39118 8.19567 3.83334 14.6913 3.83334H31.3068ZM31.3068 6.70834H14.6913C9.84209 6.70834 6.70834 10.0299 6.70834 15.1723V30.8277C6.70834 35.9701 9.84209 39.2917 14.6913 39.2917H31.3049C36.156 39.2917 39.2917 35.9701 39.2917 30.8277V15.1723C39.2917 10.0299 36.156 6.70834 31.3068 6.70834ZM30.8382 17.4359C31.3998 17.9975 31.3998 18.906 30.8382 19.4676L21.7417 28.5641C21.4619 28.8458 21.0939 28.9858 20.7259 28.9858C20.3598 28.9858 19.9899 28.8458 19.71 28.5641L15.1599 24.0158C14.5983 23.4543 14.5983 22.5458 15.1599 21.9842C15.7215 21.4226 16.63 21.4226 17.1915 21.9842L20.7259 25.5147L28.8065 17.4359C29.3681 16.8743 30.2766 16.8743 30.8382 17.4359Z" fill="#D7B1E0"/>
</svg>
